<?xml version="1.0" encoding="utf-8"?>
<!-- Generator: Adobe Illustrator 29.8.2, SVG Export Plug-In . SVG Version: 9.03 Build 0)  -->
<svg version="1.1" xmlns="http://www.w3.org/2000/svg" xmlns:xlink="http://www.w3.org/1999/xlink" x="0px" y="0px"
	 viewBox="0 0 500 575" style="enable-background:new 0 0 500 575;" xml:space="preserve">
<style type="text/css">
	.st0{clip-path:url(#SVGID_00000167367868306775192740000017383396599668622222_);}
	.st1{fill:#FFFFFF;stroke:#9E9E9E;stroke-width:1.8878;stroke-miterlimit:10;}
	.st2{opacity:0.35;fill:#1F77B4;}
	.st3{opacity:0.35;fill:#2CA02C;}
	.st4{opacity:0.35;fill:#D62728;}
	.st5{opacity:0.35;fill:#FF7F0E;stroke:#EF9292;stroke-width:1.6013;stroke-miterlimit:10;}
	.st6{opacity:0.502;fill:none;stroke:#B2B2B2;stroke-width:1.9951;stroke-miterlimit:10;}
	.st7{opacity:0.502;fill:none;stroke:#B2B2B2;stroke-width:1.9684;stroke-miterlimit:10;}
	.st8{opacity:0.502;fill:none;stroke:#B2B2B2;stroke-width:2.3739;stroke-miterlimit:10;}
	.st9{fill:#F4D3D3;stroke:#FF8383;stroke-width:2.3739;stroke-miterlimit:10;}
	.st10{opacity:0.16;fill:#5CE095;}
	.st11{opacity:0.16;fill:#FF7F0E;}
	.st12{opacity:0.16;fill:#F7F7B5;stroke:#BFB264;stroke-miterlimit:10;}
	.st13{opacity:0.16;fill:#63CEEA;}
	.st14{opacity:0.16;fill:#CC585E;}
	.st15{fill:none;stroke:#08A308;stroke-width:1.4925;stroke-linejoin:round;stroke-miterlimit:10;}
	.st16{fill:none;stroke:#870404;stroke-width:1.4925;stroke-linejoin:round;stroke-miterlimit:10;}
	.st17{fill:none;stroke:#DD8D52;stroke-width:1.7979;stroke-linejoin:round;stroke-miterlimit:10;}
	.st18{fill:none;stroke:#8E9B9E;stroke-width:0.6203;stroke-miterlimit:10;}
	.st19{fill:none;stroke:#BFB264;stroke-width:1.7979;stroke-linejoin:round;stroke-miterlimit:10;}
	.st20{fill:none;stroke:#04698C;stroke-width:1.7979;stroke-linejoin:round;stroke-miterlimit:10;}
	.st21{fill:none;stroke:#870404;stroke-width:1.5065;stroke-linejoin:round;stroke-miterlimit:10;}
	.st22{fill:none;stroke:#870404;stroke-width:1.0946;stroke-linejoin:round;stroke-miterlimit:10;}
	.st23{fill:#065875;}
</style>
<g id="Layer_1">
</g>
<g id="Layer_4">
</g>
<g id="Layer_3">
</g>
<g id="Layer_5">
</g>
<g id="Layer_2">
	<g>
		<defs>
			<polygon id="SVGID_1_" points="3.56,149.75 3.56,433.25 250,575 496.44,433.25 496.44,149.75 250,8 			"/>
		</defs>
		<clipPath id="SVGID_00000123441854607193499680000009338196710587577518_">
			<use xlink:href="#SVGID_1_"  style="overflow:visible;"/>
		</clipPath>
		<g style="clip-path:url(#SVGID_00000123441854607193499680000009338196710587577518_);">
			<polygon class="st1" points="4.18,150.11 4.18,432.43 249.68,573.59 495.18,432.43 495.18,150.11 249.68,8.94 			"/>
			<rect x="-12.79" y="451.92" width="7.61" height="8.07"/>
			<rect x="-0.02" y="475.84" width="7.61" height="8.07"/>
			<rect x="12.7" y="429.02" width="7.61" height="8.07"/>
			<rect x="25.79" y="326.46" width="7.61" height="8.07"/>
			<rect x="38.56" y="235.19" width="7.61" height="8.07"/>
			<rect x="51.33" y="236.66" width="7.61" height="8.07"/>
			<rect x="64.1" y="318.12" width="7.61" height="8.07"/>
			<rect x="76.92" y="408.54" width="7.61" height="8.07"/>
			<rect x="89.69" y="462.35" width="7.61" height="8.07"/>
			<rect x="102.46" y="442.55" width="7.61" height="8.07"/>
			<rect x="115.23" y="299.33" width="7.61" height="8.07"/>
			<rect x="166.58" y="269.26" width="7.61" height="8.07"/>
			<rect x="179.3" y="364.26" width="7.61" height="8.07"/>
			<rect x="192.07" y="387.56" width="7.61" height="8.07"/>
			<rect x="204.57" y="347.11" width="7.61" height="8.07"/>
			<rect x="217.34" y="344.51" width="7.61" height="8.07"/>
			<rect x="230.06" y="398.67" width="7.61" height="8.07"/>
			<rect x="242.62" y="459.48" width="7.61" height="8.07"/>
			<rect x="255.39" y="494.73" width="7.61" height="8.07"/>
			<rect x="268.1" y="472.68" width="7.61" height="8.07"/>
			<rect x="280.82" y="391.56" width="7.61" height="8.07"/>
			<rect x="293.64" y="294.25" width="7.61" height="8.07"/>
			<rect x="306.36" y="260.35" width="7.61" height="8.07"/>
			<rect x="319.13" y="308.24" width="7.61" height="8.07"/>
			<rect x="331.85" y="382.2" width="7.61" height="8.07"/>
			<rect x="344.56" y="451.75" width="7.61" height="8.07"/>
			<rect x="357.33" y="498.96" width="7.61" height="8.07"/>
			<rect x="370.16" y="525.31" width="7.61" height="8.07"/>
			<rect x="382.87" y="539.18" width="7.61" height="8.07"/>
			<rect x="395.59" y="546.29" width="7.61" height="8.07"/>
			<rect x="408.36" y="549" width="7.61" height="8.07"/>
			<rect x="421.08" y="549.45" width="7.61" height="8.07"/>
			<rect x="433.9" y="547.14" width="7.61" height="8.07"/>
			<rect x="446.62" y="546.57" width="7.61" height="8.07"/>
			<rect x="459.34" y="548.21" width="7.61" height="8.07"/>
			<rect x="472.16" y="549" width="7.61" height="8.07"/>
			<rect x="484.93" y="549.28" width="7.61" height="8.07"/>
			<rect x="497.65" y="549.73" width="7.61" height="8.07"/>
			<rect x="510.42" y="550.35" width="7.61" height="8.07"/>
			<rect x="523.13" y="550.63" width="7.61" height="8.07"/>
			<rect x="535.96" y="551.03" width="7.61" height="8.07"/>
			<rect x="551.75" y="549.16" width="7.61" height="8.07"/>
			<rect x="564.46" y="548.6" width="7.61" height="8.07"/>
			<rect x="577.18" y="550.23" width="7.61" height="8.07"/>
			<rect x="590" y="551.02" width="7.61" height="8.07"/>
			<rect x="602.77" y="551.3" width="7.61" height="8.07"/>
			<rect x="615.49" y="551.75" width="7.61" height="8.07"/>
			<rect x="628.26" y="552.38" width="7.61" height="8.07"/>
			<rect x="640.98" y="552.66" width="7.61" height="8.07"/>
			<rect x="653.8" y="553.05" width="7.61" height="8.07"/>
			<rect x="671.01" y="550.09" width="7.61" height="8.07"/>
			<rect x="683.72" y="549.53" width="7.61" height="8.07"/>
			<rect x="696.44" y="551.16" width="7.61" height="8.07"/>
			<rect x="709.26" y="551.95" width="7.61" height="8.07"/>
			<rect x="722.03" y="552.23" width="7.61" height="8.07"/>
			<rect x="734.75" y="552.68" width="7.61" height="8.07"/>
			<rect x="747.52" y="553.31" width="7.61" height="8.07"/>
			<rect x="760.24" y="553.59" width="7.61" height="8.07"/>
			<rect x="773.06" y="553.98" width="7.61" height="8.07"/>
			<polygon class="st2" points="3.76,479.9 16.53,433.08 29.57,330.47 42.34,239.2 55.16,240.67 67.88,322.18 80.7,412.6 
				93.47,466.36 93.47,555.71 3.76,555.71 			"/>
			<polygon class="st3" points="195.84,391.62 208.35,351.11 221.12,348.58 233.84,402.73 246.45,463.54 259.16,498.79 258.91,575 
				195.84,555.71 			"/>
			<polygon class="st4" points="259.16,498.79 271.88,476.74 284.6,395.62 297.42,298.32 310.14,264.41 322.91,312.31 
				335.62,386.26 348.39,455.81 361.11,503.02 373.94,529.31 386.65,543.24 399.42,550.35 412.14,553.06 424.86,553.51 
				424.86,555.71 259.16,568.14 			"/>
			<polygon class="st5" points="93.47,466.36 106.24,446.56 119.01,303.39 131.78,108.39 144.82,49.55 157.53,138.51 170.36,273.27 
				183.07,368.32 195.84,391.62 195.84,555.71 93.47,555.71 			"/>
			<path class="st6" d="M-45.23,161.28c0-4.21,3.47-7.67,7.67-7.67c4.26,0,7.67,3.47,7.67,7.67c0,4.21-3.41,7.67-7.67,7.67
				C-41.76,168.95-45.23,165.48-45.23,161.28"/>
			<path class="st7" d="M80.15,334.65c0-4.21,3.42-7.57,7.57-7.57c4.21,0,7.57,3.36,7.57,7.57c0,4.15-3.36,7.57-7.57,7.57
				C83.57,342.22,80.15,338.8,80.15,334.65"/>
			<path class="st7" d="M93.72,239.37c0-4.15,3.42-7.57,7.57-7.57c4.15,0,7.57,3.42,7.57,7.57c0,4.15-3.42,7.57-7.57,7.57
				C97.14,246.94,93.72,243.52,93.72,239.37"/>
			<path class="st8" d="M177.52,297.38c0-5,4.13-9.13,9.13-9.13c5.07,0,9.13,4.13,9.13,9.13c0,5.07-4.06,9.13-9.13,9.13
				C181.64,306.51,177.52,302.45,177.52,297.38"/>
			<path class="st8" d="M178.8,326.13c0-5,4.13-9.13,9.13-9.13c5.07,0,9.2,4.13,9.2,9.13c0,5-4.13,9.13-9.2,9.13
				C182.93,335.26,178.8,331.13,178.8,326.13"/>
			<path class="st8" d="M33.94,183.83c0-5,4.06-9.13,9.13-9.13c5,0,9.13,4.13,9.13,9.13c0,5-4.13,9.13-9.13,9.13
				C37.99,192.96,33.94,188.83,33.94,183.83"/>
			<path class="st8" d="M9.23,231.68c0-5,4.13-9.13,9.13-9.13c5,0,9.13,4.13,9.13,9.13c0,5-4.13,9.13-9.13,9.13
				C13.36,240.81,9.23,236.68,9.23,231.68"/>
			<path class="st8" d="M40.36,153.66c0-5,4.13-9.13,9.13-9.13c5.07,0,9.13,4.13,9.13,9.13s-4.06,9.13-9.13,9.13
				C44.49,162.79,40.36,158.67,40.36,153.66"/>
			<path class="st8" d="M11.18,185.31c0-5,4.06-9.13,9.13-9.13c5,0,9.13,4.13,9.13,9.13c0,5-4.13,9.13-9.13,9.13
				C15.24,194.44,11.18,190.32,11.18,185.31"/>
			<path class="st8" d="M18.29,233.71c0-5,4.13-9.13,9.13-9.13s9.13,4.13,9.13,9.13s-4.13,9.13-9.13,9.13S18.29,238.71,18.29,233.71
				"/>
			<path class="st8" d="M195.64,335.93c0-5,4.13-9.13,9.13-9.13c5.07,0,9.13,4.13,9.13,9.13c0,5-4.06,9.13-9.13,9.13
				C199.77,345.06,195.64,340.94,195.64,335.93"/>
			<path class="st8" d="M196.93,337.08c0-5,4.13-9.13,9.13-9.13c5.07,0,9.13,4.13,9.13,9.13c0,5.07-4.06,9.13-9.13,9.13
				C201.05,346.21,196.93,342.15,196.93,337.08"/>
			<path class="st8" d="M50.71,157.32c0-5.07,4.13-9.13,9.2-9.13c5,0,9.13,4.06,9.13,9.13c0,5-4.13,9.13-9.13,9.13
				C54.83,166.45,50.71,162.32,50.71,157.32"/>
			<path class="st8" d="M71.6,138.92c0-5,4.06-9.13,9.13-9.13c5,0,9.13,4.13,9.13,9.13c0,5-4.13,9.13-9.13,9.13
				C75.65,148.05,71.6,143.92,71.6,138.92"/>
			<path class="st8" d="M33.85,237.56c0-5.07,4.06-9.2,9.13-9.2c5,0,9.13,4.13,9.13,9.2c0,5-4.13,9.13-9.13,9.13
				C37.91,246.69,33.85,242.57,33.85,237.56"/>
			<path class="st8" d="M78.59,366.3c0-5.07,4.13-9.13,9.13-9.13c5,0,9.13,4.06,9.13,9.13c0,5-4.13,9.13-9.13,9.13
				C82.71,375.43,78.59,371.3,78.59,366.3"/>
			<path class="st8" d="M64.98,196.34c0-5,4.13-9.13,9.13-9.13c5,0,9.13,4.13,9.13,9.13s-4.13,9.13-9.13,9.13
				C69.1,205.47,64.98,201.34,64.98,196.34"/>
			<path class="st8" d="M66.26,195.26c0-5.07,4.13-9.13,9.13-9.13s9.13,4.06,9.13,9.13c0,5-4.13,9.13-9.13,9.13
				S66.26,200.26,66.26,195.26"/>
			<path class="st8" d="M216.34,278.72c0-5,4.13-9.13,9.13-9.13c5.07,0,9.13,4.13,9.13,9.13s-4.06,9.13-9.13,9.13
				C220.46,287.85,216.34,283.72,216.34,278.72"/>
			<path class="st8" d="M217.69,277.57c0-5,4.06-9.13,9.13-9.13c5,0,9.13,4.13,9.13,9.13c0,5-4.13,9.13-9.13,9.13
				C221.75,286.7,217.69,282.57,217.69,277.57"/>
			<path class="st8" d="M88.38,394.7c0-5.07,4.06-9.13,9.13-9.13c5,0,9.13,4.06,9.13,9.13c0,5-4.13,9.13-9.13,9.13
				C92.44,403.83,88.38,399.71,88.38,394.7"/>
			<path class="st8" d="M74.04,226.23c0-5,4.13-9.13,9.13-9.13c5,0,9.13,4.13,9.13,9.13c0,5-4.13,9.13-9.13,9.13
				C78.17,235.36,74.04,231.24,74.04,226.23"/>
			<path class="st7" d="M422.62,529.95c0-4.15,3.42-7.57,7.57-7.57c4.15,0,7.57,3.42,7.57,7.57c0,4.15-3.42,7.57-7.57,7.57
				C426.05,537.52,422.62,534.1,422.62,529.95"/>
			<path class="st8" d="M440.31,517.25c0-5,4.13-9.13,9.13-9.13c5,0,9.13,4.13,9.13,9.13c0,5-4.13,9.13-9.13,9.13
				C444.44,526.38,440.31,522.26,440.31,517.25"/>
			<path class="st8" d="M70.88,266.9c0-5,4.13-9.13,9.13-9.13c5.07,0,9.13,4.13,9.13,9.13c0,5-4.06,9.13-9.13,9.13
				C75,276.03,70.88,271.91,70.88,266.9"/>
			<path class="st8" d="M74.8,302.95c0-5.07,4.06-9.13,9.13-9.13c5,0,9.13,4.06,9.13,9.13c0,5-4.13,9.13-9.13,9.13
				C78.86,312.08,74.8,307.96,74.8,302.95"/>
			<path class="st8" d="M81.82,194.04c0-5.07,4.06-9.13,9.13-9.13c5,0,9.13,4.06,9.13,9.13c0,5-4.13,9.13-9.13,9.13
				C85.88,203.17,81.82,199.04,81.82,194.04"/>
			<path class="st8" d="M231.89,312.87c0-5,4.13-9.13,9.13-9.13c5,0,9.13,4.13,9.13,9.13c0,5-4.13,9.13-9.13,9.13
				C236.02,322,231.89,317.87,231.89,312.87"/>
			<path class="st8" d="M234.46,347.16c0-5.07,4.13-9.2,9.13-9.2c5.07,0,9.13,4.13,9.13,9.2c0,5-4.06,9.13-9.13,9.13
				C238.59,356.29,234.46,352.16,234.46,347.16"/>
			<path class="st8" d="M36.71,205.47c0-5,4.06-9.13,9.13-9.13c5,0,9.13,4.13,9.13,9.13c0,5-4.13,9.13-9.13,9.13
				C40.77,214.6,36.71,210.47,36.71,205.47"/>
			<path class="st8" d="M92.17,181.19c0-5,4.13-9.13,9.13-9.13c5,0,9.13,4.13,9.13,9.13c0,5-4.13,9.13-9.13,9.13
				C96.29,190.32,92.17,186.19,92.17,181.19"/>
			<path class="st8" d="M87.72,280.84c0-5.07,4.13-9.13,9.13-9.13c5,0,9.13,4.06,9.13,9.13c0,5-4.13,9.13-9.13,9.13
				C91.84,289.97,87.72,285.84,87.72,280.84"/>
			<path class="st8" d="M244.81,449.08c0-5.07,4.13-9.13,9.13-9.13c5.07,0,9.13,4.06,9.13,9.13c0,5-4.06,9.13-9.13,9.13
				C248.94,458.21,244.81,454.08,244.81,449.08"/>
			<path class="st8" d="M247.45,497.71c0-5.07,4.06-9.13,9.13-9.13c5,0,9.13,4.06,9.13,9.13c0,5-4.13,9.13-9.13,9.13
				C251.51,506.84,247.45,502.71,247.45,497.71"/>
			<path class="st8" d="M248.73,474.51c0-5,4.13-9.13,9.13-9.13c5,0,9.13,4.13,9.13,9.13c0,5-4.13,9.13-9.13,9.13
				C252.86,483.64,248.73,479.51,248.73,474.51"/>
			<path class="st8" d="M244.14,416.14c0-5,4.13-9.13,9.13-9.13c5,0,9.13,4.13,9.13,9.13c0,5-4.13,9.13-9.13,9.13
				C248.27,425.27,244.14,421.15,244.14,416.14"/>
			<path class="st8" d="M252.59,307.73c0-5,4.13-9.13,9.13-9.13c5,0,9.13,4.13,9.13,9.13c0,5-4.13,9.13-9.13,9.13
				C256.71,316.86,252.59,312.73,252.59,307.73"/>
			<path class="st8" d="M257.83,437.99c0-5,4.13-9.13,9.13-9.13c5.07,0,9.2,4.13,9.2,9.13c0,5-4.13,9.13-9.2,9.13
				C261.96,447.12,257.83,442.99,257.83,437.99"/>
			<path class="st8" d="M241.02,382.87c0-5,4.06-9.13,9.13-9.13c5,0,9.13,4.13,9.13,9.13c0,5.07-4.13,9.13-9.13,9.13
				C245.08,392,241.02,387.94,241.02,382.87"/>
			<path class="st8" d="M253.25,387.1c0-5.07,4.06-9.2,9.13-9.2c5,0,9.13,4.13,9.13,9.2c0,5-4.13,9.13-9.13,9.13
				C257.3,396.23,253.25,392.1,253.25,387.1"/>
			<path class="st8" d="M260.37,251.05c0-5,4.13-9.13,9.13-9.13c5,0,9.13,4.13,9.13,9.13c0,5.07-4.13,9.2-9.13,9.2
				C264.49,260.25,260.37,256.13,260.37,251.05"/>
			<path class="st8" d="M262.94,362.98c0-5,4.13-9.13,9.13-9.13c5.07,0,9.13,4.13,9.13,9.13c0,5-4.06,9.13-9.13,9.13
				C267.06,372.11,262.94,367.99,262.94,362.98"/>
			<path class="st8" d="M224.94,243.75c0-5,4.13-9.13,9.13-9.13c5.07,0,9.13,4.13,9.13,9.13c0,5-4.06,9.13-9.13,9.13
				C229.06,252.88,224.94,248.75,224.94,243.75"/>
			<path class="st8" d="M265.57,438.12c0-5.07,4.06-9.13,9.13-9.13c5,0,9.13,4.06,9.13,9.13c0,5-4.13,9.13-9.13,9.13
				C269.63,447.25,265.57,443.13,265.57,438.12"/>
			<path class="st8" d="M272,268.1c0-5,4.13-9.13,9.13-9.13c5.07,0,9.13,4.13,9.13,9.13c0,5-4.06,9.13-9.13,9.13
				C276.12,277.23,272,273.1,272,268.1"/>
			<path class="st8" d="M195.64,260.35c0-5,4.13-9.13,9.13-9.13c5.07,0,9.13,4.13,9.13,9.13c0,5-4.06,9.13-9.13,9.13
				C199.77,269.48,195.64,265.36,195.64,260.35"/>
			<path class="st8" d="M88.72,424.33c0-5.07,4.13-9.13,9.2-9.13c5,0,9.13,4.06,9.13,9.13c0,5-4.13,9.13-9.13,9.13
				C92.84,433.46,88.72,429.33,88.72,424.33"/>
			<path class="st8" d="M300.47,226.23c0-5,4.13-9.13,9.13-9.13c5,0,9.13,4.13,9.13,9.13c0,5.07-4.13,9.2-9.13,9.2
				C304.6,235.43,300.47,231.31,300.47,226.23"/>
			<path class="st8" d="M313.46,314.56c0-5,4.06-9.13,9.13-9.13c5,0,9.13,4.13,9.13,9.13c0,5-4.13,9.13-9.13,9.13
				C317.52,323.69,313.46,319.57,313.46,314.56"/>
			<path class="st8" d="M323.81,366.3c0-5,4.06-9.13,9.13-9.13c5,0,9.13,4.13,9.13,9.13c0,5.07-4.13,9.13-9.13,9.13
				C327.86,375.43,323.81,371.37,323.81,366.3"/>
			<path class="st8" d="M334.15,363.46c0-5,4.06-9.13,9.13-9.13c5,0,9.13,4.13,9.13,9.13c0,5-4.13,9.13-9.13,9.13
				C338.21,372.59,334.15,368.46,334.15,363.46"/>
			<path class="st8" d="M341.86,483.64c0-5,4.13-9.13,9.2-9.13c5,0,9.13,4.13,9.13,9.13c0,5.07-4.13,9.13-9.13,9.13
				C345.99,492.77,341.86,488.71,341.86,483.64"/>
			<path class="st8" d="M343.22,469.1c0-5,4.06-9.13,9.13-9.13c5,0,9.13,4.13,9.13,9.13c0,5-4.13,9.13-9.13,9.13
				C347.27,478.23,343.22,474.1,343.22,469.1"/>
			<path class="st8" d="M344.5,359.67c0-5,4.13-9.13,9.13-9.13c5,0,9.13,4.13,9.13,9.13c0,5.07-4.13,9.13-9.13,9.13
				C348.63,368.8,344.5,364.74,344.5,359.67"/>
			<path class="st8" d="M345.79,405.05c0-5,4.13-9.13,9.13-9.13c5,0,9.13,4.13,9.13,9.13c0,5-4.13,9.13-9.13,9.13
				C349.91,414.18,345.79,410.06,345.79,405.05"/>
			<path class="st8" d="M347.07,477.82c0-5.07,4.13-9.13,9.13-9.13c5,0,9.13,4.06,9.13,9.13c0,5-4.13,9.13-9.13,9.13
				C351.2,486.95,347.07,482.83,347.07,477.82"/>
			<path class="st8" d="M411.05,271.71c0-5,4.13-9.13,9.13-9.13c5.07,0,9.13,4.13,9.13,9.13c0,5.07-4.06,9.13-9.13,9.13
				C415.18,280.84,411.05,276.78,411.05,271.71"/>
			<path class="st8" d="M350.93,404.85c0-5,4.13-9.13,9.13-9.13c5.07,0,9.2,4.13,9.2,9.13c0,5-4.13,9.13-9.2,9.13
				C355.05,413.98,350.93,409.85,350.93,404.85"/>
			<path class="st8" d="M352.28,345.47c0-5,4.06-9.13,9.13-9.13c5,0,9.13,4.13,9.13,9.13c0,5.07-4.13,9.13-9.13,9.13
				C356.34,354.6,352.28,350.54,352.28,345.47"/>
			<path class="st8" d="M353.56,323.89c0-5,4.06-9.13,9.13-9.13c5,0,9.13,4.13,9.13,9.13c0,5.07-4.13,9.13-9.13,9.13
				C357.62,333.02,353.56,328.97,353.56,323.89"/>
			<path class="st8" d="M354.85,460.58c0-5.07,4.13-9.2,9.13-9.2c5,0,9.13,4.13,9.13,9.2c0,5-4.13,9.13-9.13,9.13
				C358.97,469.71,354.85,465.58,354.85,460.58"/>
			<path class="st8" d="M357.42,494.19c0-5,4.13-9.13,9.13-9.13c5,0,9.13,4.13,9.13,9.13c0,5.07-4.13,9.13-9.13,9.13
				C361.54,503.32,357.42,499.26,357.42,494.19"/>
			<path class="st8" d="M358.7,427.91c0-5,4.13-9.13,9.13-9.13c5.07,0,9.13,4.13,9.13,9.13c0,5.07-4.06,9.13-9.13,9.13
				C362.83,437.04,358.7,432.98,358.7,427.91"/>
			<path class="st8" d="M359.99,456.32c0-5,4.13-9.13,9.13-9.13c5.07,0,9.13,4.13,9.13,9.13c0,5-4.06,9.13-9.13,9.13
				C364.11,465.45,359.99,461.32,359.99,456.32"/>
			<path class="st8" d="M361.34,299.88c0-5,4.06-9.13,9.13-9.13c5,0,9.13,4.13,9.13,9.13c0,5-4.13,9.13-9.13,9.13
				C365.4,309.01,361.34,304.89,361.34,299.88"/>
			<path class="st8" d="M343.04,277.23c0-5,4.06-9.13,9.13-9.13c5,0,9.13,4.13,9.13,9.13c0,5-4.13,9.13-9.13,9.13
				C347.1,286.36,343.04,282.23,343.04,277.23"/>
			<path class="st8" d="M365.2,243.75c0-5,4.13-9.13,9.13-9.13c5,0,9.13,4.13,9.13,9.13c0,5.07-4.13,9.13-9.13,9.13
				C369.32,252.88,365.2,248.82,365.2,243.75"/>
			<path class="st8" d="M366.48,432.44c0-5.07,4.13-9.2,9.13-9.2c5,0,9.13,4.13,9.13,9.2c0,5-4.13,9.13-9.13,9.13
				C370.61,441.57,366.48,437.45,366.48,432.44"/>
			<path class="st8" d="M367.77,395.58c0-5.07,4.13-9.13,9.13-9.13c5.07,0,9.13,4.06,9.13,9.13c0,5-4.06,9.13-9.13,9.13
				C371.89,404.71,367.77,400.59,367.77,395.58"/>
			<path class="st8" d="M393.6,281.34c0-5.07,4.13-9.13,9.13-9.13c5.07,0,9.13,4.06,9.13,9.13c0,5-4.06,9.13-9.13,9.13
				C397.73,290.47,393.6,286.34,393.6,281.34"/>
			<path class="st8" d="M370.34,327.48c0-5,4.13-9.13,9.2-9.13c5,0,9.13,4.13,9.13,9.13c0,5-4.13,9.13-9.13,9.13
				C374.46,336.61,370.34,332.48,370.34,327.48"/>
			<path class="st8" d="M372.97,461.59c0-5,4.13-9.13,9.13-9.13c5,0,9.13,4.13,9.13,9.13c0,5.07-4.13,9.13-9.13,9.13
				C377.1,470.72,372.97,466.66,372.97,461.59"/>
			<path class="st8" d="M374.26,438.12c0-5.07,4.13-9.13,9.13-9.13c5,0,9.13,4.06,9.13,9.13c0,5-4.13,9.13-9.13,9.13
				C378.38,447.25,374.26,443.13,374.26,438.12"/>
			<path class="st8" d="M375.54,250.65c0-5.07,4.13-9.13,9.13-9.13c5,0,9.13,4.06,9.13,9.13c0,5-4.13,9.13-9.13,9.13
				C379.67,259.78,375.54,255.65,375.54,250.65"/>
			<path class="st8" d="M376.83,432.71c0-5.07,4.13-9.13,9.13-9.13c5,0,9.13,4.06,9.13,9.13c0,5-4.13,9.13-9.13,9.13
				C380.95,441.84,376.83,437.72,376.83,432.71"/>
			<path class="st8" d="M378.11,474.78c0-5,4.13-9.13,9.13-9.13c5.07,0,9.13,4.13,9.13,9.13c0,5-4.06,9.13-9.13,9.13
				C382.24,483.91,378.11,479.78,378.11,474.78"/>
			<path class="st8" d="M380.75,462.81c0-5.07,4.06-9.13,9.13-9.13c5,0,9.13,4.06,9.13,9.13c0,5-4.13,9.13-9.13,9.13
				C384.81,471.94,380.75,467.81,380.75,462.81"/>
			<path class="st8" d="M384.67,394.7c0-5,4.06-9.13,9.13-9.13c5,0,9.13,4.13,9.13,9.13s-4.13,9.13-9.13,9.13
				C388.73,403.83,384.67,399.71,384.67,394.7"/>
			<path class="st8" d="M383.32,485.74c0-5,4.13-9.13,9.13-9.13c5,0,9.13,4.13,9.13,9.13c0,5.07-4.13,9.13-9.13,9.13
				C387.45,494.87,383.32,490.81,383.32,485.74"/>
			<path class="st8" d="M391.07,516.98c0-5.07,4.13-9.13,9.13-9.13c5,0,9.13,4.06,9.13,9.13c0,5-4.13,9.13-9.13,9.13
				C395.19,526.11,391.07,521.99,391.07,516.98"/>
			<path class="st8" d="M389.68,409.38c0-5.07,4.13-9.13,9.13-9.13c5,0,9.13,4.06,9.13,9.13c0,5-4.13,9.13-9.13,9.13
				C393.8,418.51,389.68,414.38,389.68,409.38"/>
			<path class="st8" d="M398.81,451.31c0-5.07,4.13-9.13,9.13-9.13c5.07,0,9.2,4.06,9.2,9.13c0,5-4.13,9.13-9.2,9.13
				C402.93,460.44,398.81,456.32,398.81,451.31"/>
			<path class="st8" d="M400.16,438.19c0-5,4.06-9.13,9.13-9.13c5,0,9.13,4.13,9.13,9.13c0,5-4.13,9.13-9.13,9.13
				C404.22,447.32,400.16,443.2,400.16,438.19"/>
			<path class="st8" d="M401.45,340.19c0-5,4.06-9.13,9.13-9.13c5,0,9.13,4.13,9.13,9.13c0,5-4.13,9.13-9.13,9.13
				C405.5,349.32,401.45,345.2,401.45,340.19"/>
			<path class="st8" d="M402.73,352.37c0-5,4.13-9.13,9.13-9.13c5,0,9.13,4.13,9.13,9.13c0,5-4.13,9.13-9.13,9.13
				C406.86,361.5,402.73,357.37,402.73,352.37"/>
			<path class="st8" d="M418.29,423.72c0-5,4.13-9.13,9.13-9.13c5,0,9.13,4.13,9.13,9.13c0,5-4.13,9.13-9.13,9.13
				C422.41,432.85,418.29,428.72,418.29,423.72"/>
			<path class="st8" d="M406.59,321.05c0-5,4.13-9.13,9.13-9.13c5.07,0,9.13,4.13,9.13,9.13c0,5-4.06,9.13-9.13,9.13
				C410.71,330.18,406.59,326.06,406.59,321.05"/>
			<path class="st8" d="M407.87,367.52c0-5,4.13-9.13,9.13-9.13c5.07,0,9.13,4.13,9.13,9.13c0,5.07-4.06,9.13-9.13,9.13
				C412,376.65,407.87,372.59,407.87,367.52"/>
			<path class="st8" d="M410.51,479.85c0-5.07,4.06-9.13,9.13-9.13c5,0,9.13,4.06,9.13,9.13c0,5-4.13,9.13-9.13,9.13
				C414.57,488.98,410.51,484.86,410.51,479.85"/>
			<path class="st8" d="M413.08,400.25c0-5,4.13-9.13,9.13-9.13c5,0,9.13,4.13,9.13,9.13s-4.13,9.13-9.13,9.13
				C417.21,409.38,413.08,405.25,413.08,400.25"/>
			<path class="st8" d="M414.36,460.58c0-5,4.13-9.13,9.13-9.13s9.13,4.13,9.13,9.13c0,5-4.13,9.13-9.13,9.13
				S414.36,465.58,414.36,460.58"/>
			<path class="st8" d="M415.65,517.05c0-5,4.13-9.13,9.13-9.13c5.07,0,9.13,4.13,9.13,9.13c0,5.07-4.06,9.13-9.13,9.13
				C419.77,526.18,415.65,522.12,415.65,517.05"/>
			<path class="st8" d="M416.93,407.01c0-5,4.13-9.13,9.13-9.13c5.07,0,9.13,4.13,9.13,9.13c0,5.07-4.06,9.13-9.13,9.13
				C421.06,416.14,416.93,412.09,416.93,407.01"/>
			<path class="st8" d="M418.22,423.72c0-5,4.13-9.13,9.2-9.13c5,0,9.13,4.13,9.13,9.13c0,5-4.13,9.13-9.13,9.13
				C422.34,432.85,418.22,428.72,418.22,423.72"/>
			<path class="st8" d="M420.86,460.04c0-5,4.13-9.13,9.13-9.13c5,0,9.13,4.13,9.13,9.13c0,5.07-4.13,9.13-9.13,9.13
				C424.98,469.17,420.86,465.11,420.86,460.04"/>
			<path class="st8" d="M422.14,487.9c0-5,4.13-9.13,9.13-9.13s9.13,4.13,9.13,9.13c0,5-4.13,9.13-9.13,9.13
				S422.14,492.91,422.14,487.9"/>
			<path class="st8" d="M423.43,332.01c0-5,4.13-9.13,9.13-9.13c5,0,9.13,4.13,9.13,9.13c0,5-4.13,9.13-9.13,9.13
				C427.55,341.14,423.43,337.01,423.43,332.01"/>
			<path class="st8" d="M424.71,293.8c0-5.07,4.13-9.13,9.13-9.13c5,0,9.13,4.06,9.13,9.13c0,5-4.13,9.13-9.13,9.13
				C428.84,302.93,424.71,298.8,424.71,293.8"/>
			<path class="st8" d="M426,474.92c0-5,4.13-9.13,9.13-9.13c5.07,0,9.13,4.13,9.13,9.13c0,5-4.06,9.13-9.13,9.13
				C430.12,484.05,426,479.92,426,474.92"/>
			<path class="st8" d="M428.63,497.44c0-5.07,4.06-9.13,9.13-9.13c5,0,9.13,4.06,9.13,9.13c0,5-4.13,9.13-9.13,9.13
				C432.69,506.57,428.63,502.44,428.63,497.44"/>
			<path class="st8" d="M429.92,427.98c0-5.07,4.06-9.13,9.13-9.13c5,0,9.13,4.06,9.13,9.13c0,5-4.13,9.13-9.13,9.13
				C433.98,437.11,429.92,432.98,429.92,427.98"/>
			<path class="st8" d="M431.2,392c0-5,4.13-9.13,9.13-9.13c5,0,9.13,4.13,9.13,9.13s-4.13,9.13-9.13,9.13
				C435.33,401.13,431.2,397,431.2,392"/>
			<path class="st8" d="M432.49,488.92c0-5.07,4.13-9.2,9.13-9.2c5,0,9.13,4.13,9.13,9.2c0,5-4.13,9.13-9.13,9.13
				C436.62,498.05,432.49,493.92,432.49,488.92"/>
			<path class="st8" d="M433.77,457.06c0-5,4.13-9.13,9.13-9.13c5,0,9.13,4.13,9.13,9.13c0,5-4.13,9.13-9.13,9.13
				C437.9,466.19,433.77,462.07,433.77,457.06"/>
			<path class="st8" d="M436.34,302.18c0-5,4.13-9.13,9.13-9.13c5.07,0,9.13,4.13,9.13,9.13s-4.06,9.13-9.13,9.13
				C440.47,311.31,436.34,307.19,436.34,302.18"/>
			<path class="st7" d="M475.19,524.17c0-4.15,3.36-7.57,7.57-7.57c4.15,0,7.57,3.42,7.57,7.57c0,4.15-3.42,7.57-7.57,7.57
				C478.55,531.74,475.19,528.32,475.19,524.17"/>
			<path class="st8" d="M438.98,396.26c0-5.07,4.06-9.2,9.13-9.2c5,0,9.13,4.13,9.13,9.2c0,5-4.13,9.13-9.13,9.13
				C443.04,405.39,438.98,401.26,438.98,396.26"/>
			<path class="st8" d="M440.27,343.44c0-5,4.13-9.13,9.13-9.13c5,0,9.13,4.13,9.13,9.13s-4.13,9.13-9.13,9.13
				C444.39,352.57,440.27,348.44,440.27,343.44"/>
			<path class="st8" d="M441.55,434.13c0-5.07,4.13-9.13,9.13-9.13c5,0,9.13,4.06,9.13,9.13c0,5-4.13,9.13-9.13,9.13
				C445.68,443.26,441.55,439.14,441.55,434.13"/>
			<path class="st8" d="M444.12,498.38c0-5,4.13-9.13,9.13-9.13s9.13,4.13,9.13,9.13c0,5-4.13,9.13-9.13,9.13
				S444.12,503.39,444.12,498.38"/>
			<path class="st8" d="M445.41,420.54c0-5,4.13-9.13,9.13-9.13c5.07,0,9.13,4.13,9.13,9.13c0,5.07-4.06,9.13-9.13,9.13
				C449.53,429.67,445.41,425.61,445.41,420.54"/>
			<path class="st8" d="M446.69,470.79c0-5,4.13-9.13,9.13-9.13c5.07,0,9.2,4.13,9.2,9.13c0,5-4.13,9.13-9.2,9.13
				C450.82,479.92,446.69,475.79,446.69,470.79"/>
			<path class="st8" d="M448.05,507.85c0-5,4.06-9.13,9.13-9.13c5,0,9.13,4.13,9.13,9.13c0,5-4.13,9.13-9.13,9.13
				C452.1,516.98,448.05,512.86,448.05,507.85"/>
			<path class="st8" d="M449.33,297.86c0-5,4.06-9.13,9.13-9.13c5,0,9.13,4.13,9.13,9.13c0,5.07-4.13,9.13-9.13,9.13
				C453.39,306.99,449.33,302.93,449.33,297.86"/>
			<path class="st8" d="M451.9,219c0-5,4.13-9.13,9.13-9.13c5,0,9.13,4.13,9.13,9.13c0,5-4.13,9.13-9.13,9.13
				C456.03,228.13,451.9,224,451.9,219"/>
			<path class="st8" d="M453.18,353.79c0-5,4.13-9.13,9.13-9.13c5,0,9.13,4.13,9.13,9.13s-4.13,9.13-9.13,9.13
				C457.31,362.92,453.18,358.79,453.18,353.79"/>
			<path class="st8" d="M454.47,444.41c0-5.07,4.13-9.13,9.13-9.13c5.07,0,9.13,4.06,9.13,9.13c0,5-4.06,9.13-9.13,9.13
				C458.6,453.54,454.47,449.42,454.47,444.41"/>
			<path class="st8" d="M455.76,486.95c0-5,4.13-9.13,9.13-9.13c5.07,0,9.13,4.13,9.13,9.13c0,5.07-4.06,9.13-9.13,9.13
				C459.88,496.08,455.76,492.03,455.76,486.95"/>
			<path class="st8" d="M457.11,437.99c0-5,4.06-9.13,9.13-9.13c5,0,9.13,4.13,9.13,9.13c0,5.07-4.13,9.13-9.13,9.13
				C461.17,447.12,457.11,443.06,457.11,437.99"/>
			<path class="st8" d="M459.68,424.33c0-5.07,4.13-9.13,9.13-9.13c5,0,9.13,4.06,9.13,9.13c0,5-4.13,9.13-9.13,9.13
				C463.8,433.46,459.68,429.33,459.68,424.33"/>
			<path class="st8" d="M460.96,397.27c0-5,4.13-9.13,9.13-9.13c5,0,9.13,4.13,9.13,9.13c0,5.07-4.13,9.2-9.13,9.2
				C465.09,406.47,460.96,402.35,460.96,397.27"/>
			<path class="st8" d="M462.25,222.78c0-5,4.13-9.13,9.13-9.13c5,0,9.13,4.13,9.13,9.13c0,5.07-4.13,9.13-9.13,9.13
				C466.37,231.91,462.25,227.86,462.25,222.78"/>
			<path class="st8" d="M463.53,490.47c0-5,4.13-9.13,9.13-9.13c5.07,0,9.13,4.13,9.13,9.13c0,5.07-4.06,9.13-9.13,9.13
				C467.66,499.6,463.53,495.54,463.53,490.47"/>
			<path class="st8" d="M464.82,477.42c0-5,4.13-9.13,9.13-9.13c5.07,0,9.13,4.13,9.13,9.13c0,5.07-4.06,9.13-9.13,9.13
				C468.94,486.55,464.82,482.49,464.82,477.42"/>
			<path class="st8" d="M467.46,261.67c0-5,4.06-9.13,9.13-9.13c5,0,9.13,4.13,9.13,9.13c0,5-4.13,9.13-9.13,9.13
				C471.51,270.8,467.46,266.68,467.46,261.67"/>
			<path class="st8" d="M468.74,457.2c0-5.07,4.13-9.13,9.13-9.13c5,0,9.13,4.06,9.13,9.13c0,5-4.13,9.13-9.13,9.13
				C472.87,466.33,468.74,462.2,468.74,457.2"/>
			<path class="st8" d="M470.03,502.98c0-5.07,4.13-9.13,9.13-9.13c5,0,9.13,4.06,9.13,9.13c0,5-4.13,9.13-9.13,9.13
				C474.15,512.11,470.03,507.99,470.03,502.98"/>
			<path class="st8" d="M471.31,502.04c0-5.07,4.13-9.2,9.13-9.2c5,0,9.13,4.13,9.13,9.2c0,5-4.13,9.13-9.13,9.13
				C475.44,511.17,471.31,507.04,471.31,502.04"/>
			<path class="st8" d="M472.6,503.59c0-5.07,4.13-9.13,9.13-9.13c5,0,9.13,4.06,9.13,9.13c0,5-4.13,9.13-9.13,9.13
				C476.72,512.72,472.6,508.6,472.6,503.59"/>
			<path class="st9" d="M264.36,353.79c0-5,4.13-9.13,9.13-9.13c5,0,9.13,4.13,9.13,9.13c0,5-4.13,9.13-9.13,9.13
				C268.48,362.92,264.36,358.79,264.36,353.79"/>
			<path class="st9" d="M322.59,327.08c0-5,4.13-9.13,9.13-9.13c5,0,9.13,4.13,9.13,9.13c0,5-4.13,9.13-9.13,9.13
				C326.71,336.21,322.59,332.08,322.59,327.08"/>
			<path class="st9" d="M222.83,348.92c0-5.07,4.13-9.13,9.13-9.13c5,0,9.13,4.06,9.13,9.13c0,5-4.13,9.13-9.13,9.13
				C226.96,358.05,222.83,353.92,222.83,348.92"/>
			<path class="st9" d="M183.45,325.85c0-5.07,4.13-9.13,9.13-9.13s9.13,4.06,9.13,9.13c0,5-4.13,9.13-9.13,9.13
				S183.45,330.86,183.45,325.85"/>
			<path class="st9" d="M188.03,325.58c0-5.07,4.13-9.13,9.13-9.13s9.13,4.06,9.13,9.13c0,5-4.13,9.13-9.13,9.13
				S188.03,330.59,188.03,325.58"/>
			<path class="st9" d="M165.19,315.62c0-5.07,4.13-9.13,9.13-9.13c5,0,9.13,4.06,9.13,9.13c0,5-4.13,9.13-9.13,9.13
				C169.31,324.75,165.19,320.63,165.19,315.62"/>
			<path class="st9" d="M7.37,323.69c0-5.07,4.13-9.13,9.13-9.13s9.13,4.06,9.13,9.13c0,5-4.13,9.13-9.13,9.13
				S7.37,328.7,7.37,323.69"/>
			<path class="st9" d="M215.73,321.93c0-5,4.13-9.13,9.13-9.13c5.07,0,9.13,4.13,9.13,9.13c0,5-4.06,9.13-9.13,9.13
				C219.86,331.06,215.73,326.94,215.73,321.93"/>
			<path class="st9" d="M116.13,318.35c0-5,4.13-9.13,9.13-9.13c5.07,0,9.13,4.13,9.13,9.13c0,5-4.06,9.13-9.13,9.13
				C120.25,327.48,116.13,323.35,116.13,318.35"/>
			<path class="st9" d="M81.82,332.01c0-5,4.13-9.13,9.13-9.13c5.07,0,9.13,4.13,9.13,9.13c0,5-4.06,9.13-9.13,9.13
				C85.94,341.14,81.82,337.01,81.82,332.01"/>
			<path class="st9" d="M45.84,326.18c0-5,4.13-9.13,9.13-9.13c5.07,0,9.13,4.13,9.13,9.13c0,5-4.06,9.13-9.13,9.13
				C49.96,335.31,45.84,331.19,45.84,326.18"/>
			<path class="st9" d="M257.86,331.06c0-5,4.13-9.13,9.13-9.13c5,0,9.13,4.13,9.13,9.13c0,5.07-4.13,9.13-9.13,9.13
				C261.99,340.19,257.86,336.13,257.86,331.06"/>
			<path class="st9" d="M300.47,333.02c0-5.07,4.13-9.13,9.13-9.13c5,0,9.13,4.06,9.13,9.13c0,5-4.13,9.13-9.13,9.13
				C304.6,342.15,300.47,338.03,300.47,333.02"/>
			<path class="st9" d="M142.29,333.02c0-5,4.13-9.13,9.13-9.13c5,0,9.13,4.13,9.13,9.13c0,5.07-4.13,9.13-9.13,9.13
				C146.42,342.15,142.29,338.1,142.29,333.02"/>
			<path class="st9" d="M432.49,371.51c0-5,4.13-9.13,9.13-9.13c5,0,9.13,4.13,9.13,9.13c0,5-4.13,9.13-9.13,9.13
				C436.62,380.64,432.49,376.51,432.49,371.51"/>
			<path class="st9" d="M332.87,353.92c0-5,4.06-9.13,9.13-9.13c5,0,9.13,4.13,9.13,9.13c0,5.07-4.13,9.13-9.13,9.13
				C336.93,363.05,332.87,358.99,332.87,353.92"/>
			<path class="st9" d="M349.64,367.52c0-5,4.13-9.13,9.13-9.13c5,0,9.13,4.13,9.13,9.13c0,5-4.13,9.13-9.13,9.13
				C353.77,376.65,349.64,372.52,349.64,367.52"/>
			<path class="st9" d="M370.44,363.46c0-5.07,4.13-9.13,9.13-9.13c5.07,0,9.2,4.06,9.2,9.13c0,5-4.13,9.13-9.2,9.13
				C374.56,372.59,370.44,368.46,370.44,363.46"/>
			<path class="st9" d="M387.18,360.96c0-5,4.13-9.13,9.13-9.13c5.07,0,9.13,4.13,9.13,9.13c0,5-4.06,9.13-9.13,9.13
				C391.3,370.09,387.18,365.96,387.18,360.96"/>
			<path class="st9" d="M371.76,334.99c0-5,4.13-9.13,9.13-9.13c5.07,0,9.13,4.13,9.13,9.13c0,5-4.06,9.13-9.13,9.13
				C375.88,344.12,371.76,339.99,371.76,334.99"/>
			<path class="st9" d="M408.01,353.79c0-5.07,4.13-9.13,9.13-9.13c5,0,9.13,4.06,9.13,9.13c0,5-4.13,9.13-9.13,9.13
				C412.13,362.92,408.01,358.79,408.01,353.79"/>
			<path class="st9" d="M411.05,333.06c0-5.07,4.13-9.2,9.13-9.2c5,0,9.13,4.13,9.13,9.2c0,5-4.13,9.13-9.13,9.13
				C415.18,342.19,411.05,338.06,411.05,333.06"/>
			<path class="st9" d="M442.84,361.84c0-5,4.13-9.13,9.13-9.13c5,0,9.13,4.13,9.13,9.13c0,5-4.13,9.13-9.13,9.13
				C446.96,370.97,442.84,366.84,442.84,361.84"/>
			<path class="st9" d="M458.39,345.6c0-5,4.06-9.13,9.13-9.13c5,0,9.13,4.13,9.13,9.13c0,5-4.13,9.13-9.13,9.13
				C462.45,354.73,458.39,350.61,458.39,345.6"/>
			<rect x="-132.64" y="28.35" class="st10" width="619.57" height="27.72"/>
			<rect x="-220.1" y="83.8" class="st11" width="716.73" height="27.72"/>
			<rect x="-188.93" y="111.53" class="st12" width="692.35" height="27.72"/>
			<rect x="-150.91" y="138.97" class="st13" width="631.26" height="27.72"/>
			<rect x="-167.46" y="56.08" class="st14" width="691.53" height="27.72"/>
			<line class="st15" x1="42.93" y1="56.07" x2="42.93" y2="28.35"/>
			<line class="st16" x1="4.17" y1="56.07" x2="4.17" y2="28.35"/>
			<line class="st15" x1="149.7" y1="56.07" x2="149.7" y2="28.35"/>
			<line class="st15" x1="184.75" y1="56.07" x2="184.75" y2="28.35"/>
			<line class="st15" x1="121.65" y1="56.07" x2="121.65" y2="28.35"/>
			<line class="st15" x1="164.72" y1="56.07" x2="164.72" y2="28.35"/>
			<line class="st15" x1="207.39" y1="56.07" x2="207.39" y2="28.35"/>
			<line class="st15" x1="154.81" y1="56.07" x2="154.81" y2="28.35"/>
			<line class="st15" x1="168.23" y1="56.07" x2="168.23" y2="28.35"/>
			<line class="st15" x1="178.24" y1="56.07" x2="178.24" y2="28.35"/>
			<line class="st15" x1="193.17" y1="56.07" x2="193.17" y2="28.35"/>
			<line class="st15" x1="412.21" y1="56.07" x2="412.21" y2="28.35"/>
			<line class="st15" x1="430.34" y1="56.07" x2="430.34" y2="28.35"/>
			<line class="st15" x1="362.73" y1="56.07" x2="362.73" y2="28.35"/>
			<line class="st15" x1="395.59" y1="56.07" x2="395.59" y2="28.35"/>
			<line class="st15" x1="103.73" y1="56.07" x2="103.73" y2="28.35"/>
			<line class="st15" x1="219.51" y1="56.07" x2="219.51" y2="28.35"/>
			<line class="st15" x1="107.73" y1="56.07" x2="107.73" y2="28.35"/>
			<line class="st15" x1="109.84" y1="56.07" x2="109.84" y2="28.35"/>
			<line class="st15" x1="243.35" y1="56.07" x2="243.35" y2="28.35"/>
			<line class="st16" x1="-3.34" y1="56.07" x2="-3.34" y2="28.35"/>
			<line class="st15" x1="15.29" y1="56.07" x2="15.29" y2="28.35"/>
			<line class="st15" x1="262.38" y1="56.07" x2="262.38" y2="28.35"/>
			<line class="st15" x1="276.6" y1="56.07" x2="276.6" y2="28.35"/>
			<line class="st15" x1="66.87" y1="56.07" x2="66.87" y2="28.35"/>
			<line class="st15" x1="259.07" y1="56.07" x2="259.07" y2="28.35"/>
			<line class="st15" x1="260.97" y1="56.07" x2="260.97" y2="28.35"/>
			<line class="st15" x1="235.73" y1="56.07" x2="235.73" y2="28.35"/>
			<line class="st15" x1="254.06" y1="56.07" x2="254.06" y2="28.35"/>
			<line class="st15" x1="163.82" y1="56.07" x2="163.82" y2="28.35"/>
			<line class="st15" x1="463.89" y1="56.07" x2="463.89" y2="28.35"/>
			<line class="st15" x1="458.78" y1="56.07" x2="458.78" y2="28.35"/>
			<line class="st15" x1="469.9" y1="56.07" x2="469.9" y2="28.35"/>
			<line class="st15" x1="250.66" y1="56.07" x2="250.66" y2="28.35"/>
			<line class="st15" x1="181.95" y1="56.07" x2="181.95" y2="28.35"/>
			<line class="st15" x1="135.58" y1="56.07" x2="135.58" y2="28.35"/>
			<line class="st15" x1="310.65" y1="56.07" x2="310.65" y2="28.35"/>
			<line class="st15" x1="299.73" y1="56.07" x2="299.73" y2="28.35"/>
			<line class="st15" x1="110.64" y1="56.07" x2="110.64" y2="28.35"/>
			<line class="st15" x1="217.91" y1="56.07" x2="217.91" y2="28.35"/>
			<line class="st17" x1="106.48" y1="83.8" x2="106.48" y2="111.52"/>
			<line class="st17" x1="-10.37" y1="83.8" x2="-10.37" y2="111.52"/>
			<line class="st17" x1="237.41" y1="83.8" x2="237.41" y2="111.52"/>
			<line class="st17" x1="15.72" y1="83.8" x2="15.72" y2="111.52"/>
			<line class="st17" x1="310.73" y1="83.8" x2="310.73" y2="111.52"/>
			<line class="st17" x1="300.26" y1="83.8" x2="300.26" y2="111.52"/>
			<line class="st17" x1="221.2" y1="83.8" x2="221.2" y2="111.52"/>
			<line class="st17" x1="75.92" y1="83.8" x2="75.92" y2="111.52"/>
			<line class="st17" x1="111.13" y1="83.8" x2="111.13" y2="111.52"/>
			<line class="st17" x1="182.31" y1="83.8" x2="182.31" y2="111.52"/>
			<line class="st17" x1="202.98" y1="83.8" x2="202.98" y2="111.52"/>
			<line class="st17" x1="214.03" y1="83.8" x2="214.03" y2="111.52"/>
			<line class="st17" x1="452.84" y1="83.8" x2="452.84" y2="111.52"/>
			<line class="st17" x1="485.65" y1="83.8" x2="485.65" y2="111.52"/>
			<line class="st17" x1="295.16" y1="83.8" x2="295.16" y2="111.52"/>
			<line class="st17" x1="154.8" y1="83.8" x2="154.8" y2="111.52"/>
			<line class="st17" x1="255.63" y1="83.8" x2="255.63" y2="111.52"/>
			<line class="st17" x1="142.52" y1="83.8" x2="142.52" y2="111.52"/>
			<line class="st17" x1="349.49" y1="83.8" x2="349.49" y2="111.52"/>
			<line class="st17" x1="451.61" y1="83.8" x2="451.61" y2="111.52"/>
			<line class="st17" x1="414.47" y1="83.8" x2="414.47" y2="111.52"/>
			<line class="st17" x1="326.68" y1="83.8" x2="326.68" y2="111.52"/>
			<line class="st17" x1="420.35" y1="83.8" x2="420.35" y2="111.52"/>
			<line class="st17" x1="325.39" y1="83.8" x2="325.39" y2="111.52"/>
			<line class="st17" x1="114.55" y1="83.8" x2="114.55" y2="111.52"/>
			<line class="st17" x1="212.67" y1="83.8" x2="212.67" y2="111.52"/>
			<line class="st17" x1="328.23" y1="83.8" x2="328.23" y2="111.52"/>
			<line class="st17" x1="253.82" y1="83.8" x2="253.82" y2="111.52"/>
			<line class="st17" x1="372.29" y1="83.8" x2="372.29" y2="111.52"/>
			<line class="st17" x1="284.18" y1="83.8" x2="284.18" y2="111.52"/>
			<line class="st17" x1="305.95" y1="83.8" x2="305.95" y2="111.52"/>
			<line class="st17" x1="235.41" y1="83.8" x2="235.41" y2="111.52"/>
			<line class="st17" x1="409.37" y1="83.8" x2="409.37" y2="111.52"/>
			<line class="st17" x1="158.15" y1="83.8" x2="158.15" y2="111.52"/>
			<line class="st17" x1="178.31" y1="83.8" x2="178.31" y2="111.52"/>
			<line class="st17" x1="194.91" y1="83.8" x2="194.91" y2="111.52"/>
			<line class="st17" x1="188.97" y1="83.8" x2="188.97" y2="111.52"/>
			<line class="st17" x1="308.86" y1="83.8" x2="308.86" y2="111.52"/>
			<line class="st17" x1="193.94" y1="83.8" x2="193.94" y2="111.52"/>
			<line class="st17" x1="122.95" y1="83.8" x2="122.95" y2="111.52"/>
			<line class="st18" x1="66.69" y1="111.53" x2="66.69" y2="139.25"/>
			<line class="st19" x1="125.54" y1="111.53" x2="125.54" y2="139.25"/>
			<line class="st20" x1="218.49" y1="111.53" x2="218.49" y2="139.25"/>
			<line class="st19" x1="267.84" y1="111.53" x2="267.84" y2="139.25"/>
			<line class="st19" x1="218.1" y1="111.53" x2="218.1" y2="139.25"/>
			<line class="st19" x1="287.48" y1="111.53" x2="287.48" y2="139.25"/>
			<line class="st19" x1="228.37" y1="111.53" x2="228.37" y2="139.25"/>
			<line class="st19" x1="274.82" y1="111.53" x2="274.82" y2="139.25"/>
			<line class="st20" x1="88.4" y1="111.53" x2="88.4" y2="139.25"/>
			<line class="st19" x1="232.38" y1="111.53" x2="232.38" y2="139.25"/>
			<line class="st19" x1="358.99" y1="111.53" x2="358.99" y2="139.25"/>
			<line class="st19" x1="212.55" y1="111.53" x2="212.55" y2="139.25"/>
			<line class="st19" x1="182.7" y1="111.53" x2="182.7" y2="139.25"/>
			<line class="st19" x1="102.86" y1="111.53" x2="102.86" y2="139.25"/>
			<line class="st19" x1="128.9" y1="111.53" x2="128.9" y2="139.25"/>
			<line class="st19" x1="88.07" y1="111.53" x2="88.07" y2="139.25"/>
			<line class="st19" x1="193.36" y1="111.53" x2="193.36" y2="139.25"/>
			<line class="st20" x1="111.28" y1="138.97" x2="111.28" y2="166.69"/>
			<line class="st20" x1="5.61" y1="138.97" x2="5.61" y2="166.69"/>
			<line class="st20" x1="1.99" y1="138.97" x2="1.99" y2="166.69"/>
			<line class="st20" x1="108.96" y1="138.97" x2="108.96" y2="166.69"/>
			<line class="st20" x1="30.67" y1="138.97" x2="30.67" y2="166.69"/>
			<line class="st21" x1="202.85" y1="83.8" x2="202.85" y2="56.08"/>
			<line class="st21" x1="170.09" y1="83.8" x2="170.09" y2="56.08"/>
			<line class="st21" x1="227.13" y1="83.8" x2="227.13" y2="56.08"/>
			<line class="st21" x1="316.82" y1="83.8" x2="316.82" y2="56.08"/>
			<line class="st21" x1="-0.83" y1="83.8" x2="-0.83" y2="56.08"/>
			<line class="st21" x1="205.19" y1="83.8" x2="205.19" y2="56.08"/>
			<line class="st21" x1="155.4" y1="83.8" x2="155.4" y2="56.08"/>
			<line class="st21" x1="210.29" y1="83.8" x2="210.29" y2="56.08"/>
			<line class="st21" x1="320.91" y1="83.8" x2="320.91" y2="56.08"/>
			<line class="st21" x1="44.38" y1="83.8" x2="44.38" y2="56.08"/>
			<line class="st21" x1="144.78" y1="83.8" x2="144.78" y2="56.08"/>
			<line class="st21" x1="248.56" y1="83.8" x2="248.56" y2="56.08"/>
			<line class="st21" x1="33.56" y1="83.8" x2="33.56" y2="56.08"/>
			<line class="st21" x1="8.76" y1="83.8" x2="8.76" y2="56.08"/>
			<line class="st21" x1="90.19" y1="83.8" x2="90.19" y2="56.08"/>
			<line class="st21" x1="127.44" y1="83.8" x2="127.44" y2="56.08"/>
			<line class="st21" x1="219.17" y1="83.8" x2="219.17" y2="56.08"/>
			<line class="st21" x1="359.99" y1="83.8" x2="359.99" y2="56.08"/>
			<line class="st21" x1="428.25" y1="83.8" x2="428.25" y2="56.08"/>
			<line class="st21" x1="321.11" y1="83.8" x2="321.11" y2="56.08"/>
			<line class="st21" x1="256.52" y1="83.8" x2="256.52" y2="56.08"/>
			<line class="st21" x1="424.48" y1="83.8" x2="424.48" y2="56.08"/>
			<line class="st21" x1="228.36" y1="83.8" x2="228.36" y2="56.08"/>
			<line class="st21" x1="212.74" y1="83.8" x2="212.74" y2="56.08"/>
			<line class="st21" x1="388.35" y1="83.8" x2="388.35" y2="56.08"/>
			<line class="st21" x1="97.64" y1="83.8" x2="97.64" y2="56.08"/>
			<line class="st21" x1="272.13" y1="83.8" x2="272.13" y2="56.08"/>
			<line class="st21" x1="36.21" y1="83.8" x2="36.21" y2="56.08"/>
			<line class="st21" x1="129.68" y1="83.8" x2="129.68" y2="56.08"/>
			<line class="st21" x1="46.42" y1="83.8" x2="46.42" y2="56.08"/>
			<line class="st21" x1="110.6" y1="83.8" x2="110.6" y2="56.08"/>
			<line class="st21" x1="186.52" y1="83.8" x2="186.52" y2="56.08"/>
			<line class="st21" x1="297.54" y1="83.8" x2="297.54" y2="56.08"/>
			<line class="st21" x1="403.86" y1="83.8" x2="403.86" y2="56.08"/>
			<line class="st21" x1="433.15" y1="83.8" x2="433.15" y2="56.08"/>
			<line class="st21" x1="506.82" y1="83.8" x2="506.82" y2="56.08"/>
			<line class="st21" x1="175.91" y1="83.8" x2="175.91" y2="56.08"/>
			<line class="st21" x1="394.78" y1="83.8" x2="394.78" y2="56.08"/>
			<line class="st21" x1="492.95" y1="83.8" x2="492.95" y2="56.08"/>
			<line class="st21" x1="309.38" y1="83.8" x2="309.38" y2="56.08"/>
			<line class="st21" x1="234.07" y1="83.8" x2="234.07" y2="56.08"/>
			<line class="st21" x1="463.46" y1="83.8" x2="463.46" y2="56.08"/>
			<line class="st21" x1="32.13" y1="83.8" x2="32.13" y2="56.08"/>
			<line class="st21" x1="170.09" y1="83.8" x2="170.09" y2="56.08"/>
			<line class="st21" x1="65.4" y1="83.8" x2="65.4" y2="56.08"/>
			<line class="st21" x1="129.68" y1="83.8" x2="129.68" y2="56.08"/>
			<line class="st21" x1="256.21" y1="83.8" x2="256.21" y2="56.08"/>
			<line class="st21" x1="252.54" y1="83.8" x2="252.54" y2="56.08"/>
			<line class="st21" x1="374.99" y1="83.8" x2="374.99" y2="56.08"/>
			<line class="st21" x1="357.03" y1="83.8" x2="357.03" y2="56.08"/>
			<line class="st21" x1="410.29" y1="83.8" x2="410.29" y2="56.08"/>
			<line class="st21" x1="71.42" y1="83.8" x2="71.42" y2="56.08"/>
			<line class="st20" x1="210.29" y1="166.69" x2="210.29" y2="138.97"/>
			<line class="st20" x1="248.56" y1="166.69" x2="248.56" y2="138.97"/>
			<line class="st20" x1="272.13" y1="166.69" x2="272.13" y2="138.97"/>
			<line class="st20" x1="433.15" y1="166.69" x2="433.15" y2="138.97"/>
			<line class="st20" x1="492.95" y1="166.69" x2="492.95" y2="138.97"/>
			<line class="st20" x1="463.46" y1="166.69" x2="463.46" y2="138.97"/>
			<line class="st20" x1="32.13" y1="166.69" x2="32.13" y2="138.97"/>
			<line class="st20" x1="374.99" y1="166.69" x2="374.99" y2="138.97"/>
			<line class="st20" x1="71.42" y1="166.69" x2="71.42" y2="138.97"/>
			<line class="st21" x1="125.6" y1="83.8" x2="125.6" y2="56.08"/>
			<line class="st21" x1="417.95" y1="83.8" x2="417.95" y2="56.08"/>
			<line class="st21" x1="216.21" y1="83.8" x2="216.21" y2="56.08"/>
			<line class="st21" x1="393.25" y1="83.8" x2="393.25" y2="56.08"/>
			<line class="st21" x1="154.27" y1="83.8" x2="154.27" y2="56.08"/>
			<line class="st21" x1="357.13" y1="83.8" x2="357.13" y2="56.08"/>
			<line class="st21" x1="45.91" y1="83.8" x2="45.91" y2="56.08"/>
			<line class="st21" x1="316.52" y1="83.8" x2="316.52" y2="56.08"/>
			<line class="st21" x1="314.68" y1="83.8" x2="314.68" y2="56.08"/>
			<line class="st21" x1="28.66" y1="83.8" x2="28.66" y2="56.08"/>
			<line class="st21" x1="179.27" y1="83.8" x2="179.27" y2="56.08"/>
			<rect x="120.61" y="0.61" class="st10" width="333.23" height="27.72"/>
			<line class="st22" x1="257.38" y1="28.33" x2="257.38" y2="0.61"/>
			<line class="st22" x1="247.74" y1="28.33" x2="247.74" y2="0.61"/>
			<line class="st22" x1="249.9" y1="28.33" x2="249.9" y2="0.61"/>
			<line class="st22" x1="251.03" y1="28.33" x2="251.03" y2="0.61"/>
			<line class="st22" x1="227.92" y1="28.33" x2="227.92" y2="0.61"/>
			<line class="st22" x1="264.87" y1="28.33" x2="264.87" y2="0.61"/>
			<line class="st22" x1="251.46" y1="28.33" x2="251.46" y2="0.61"/>
			<g>
				<path class="st23" d="M217.88,217.49c0-3.27,0.11-10.35,0.22-17.88c-0.87,6.21-1.74,12.21-2.29,15.7l-6.21,34.44h-17.22
					l-6.65-34.33c-0.65-3.92-1.63-10.25-2.62-16.89c0.33,7.96,0.54,15.7,0.54,18.96v32.26h-13.41v-70.85h20.49l9.92,52.75h0.65
					l9.05-52.75h20.6v70.85h-13.08V217.49z"/>
				<path class="st23" d="M237.07,249.75v-70.85h31.61c6.98,0,9.59,3.92,9.59,12.97v23.65c0,6.87-1.63,10.68-5.67,11.99l6.43,22.23
					h-15.15l-5.78-20.93h-5.89v20.93H237.07z M263.45,215.2v-22.45h-11.23v22.45H263.45z"/>
				<path class="st23" d="M331.57,217.49c0-3.27,0.11-10.35,0.22-17.88c-0.87,6.21-1.74,12.21-2.29,15.7l-6.21,34.44h-17.22
					l-6.65-34.33c-0.65-3.92-1.64-10.25-2.62-16.89c0.33,7.96,0.54,15.7,0.54,18.96v32.26h-13.41v-70.85h20.49l9.92,52.75H315
					l9.05-52.75h20.6v70.85h-13.08V217.49z"/>
				<path class="st23" d="M388.47,249.75H374.3v-38.37h-9.26v38.37h-14.17v-72.37h14.17v24.85c3.49-2.4,8.07-4.58,13.51-4.58
					c7.08,0,9.92,3.6,9.92,11.44V249.75z"/>
				<path class="st23" d="M431.85,249.75h-13.62l-0.55-4.03c-3.49,2.51-8.17,4.47-13.51,4.47c-6.76,0-9.92-3.6-9.92-10.68v-41.42
					h14.17v38.58h9.26v-38.58h14.17V249.75z"/>
				<path class="st23" d="M438.06,177.38h14.28v24.85c3.71-2.62,8.28-4.58,13.3-4.58c8.28,0,10.68,5.34,10.68,12.21v28.12
					c0,6.87-2.62,12.21-10.68,12.21c-7.63,0-13.08-4.25-13.3-4.47l-0.54,4.03h-13.73V177.38z M462.15,236.78v-25.4h-9.81v25.4
					H462.15z"/>
			</g>
		</g>
	</g>
	<path class="st8" d="M283.54,313.36c-5,0-9.13-4.13-9.13-9.13"/>
	<g>
	</g>
	<g>
	</g>
	<g>
	</g>
	<g>
	</g>
	<g>
	</g>
	<g>
	</g>
</g>
</svg>
